<svg width="512" height="511" xmlns="http://www.w3.org/2000/svg">
 <defs>
  <linearGradient y2="1" id="imagebot_88">
   <stop stop-color="#e92d28" offset="0"/>
   <stop stop-color="#6d0018" offset="1"/>
  </linearGradient>
  <linearGradient y2="1" id="imagebot_83">
   <stop stop-color="#ff7f00" offset="0"/>
   <stop stop-color="#ff0000" offset="1"/>
  </linearGradient>
  <linearGradient y2="1" id="imagebot_91">
   <stop stop-color="#e470e6" offset="0"/>
   <stop stop-color="#a849a3" offset="1"/>
  </linearGradient>
 </defs>
 <g>
  <title/>
  <path d="M141.867,476.623L129.067,463.823L186.667,406.223L186.667,279.289L205.867,279.289L205.867,408.356C205.867,410.489 204.8,413.689 202.667,414.756L141.867,476.623z" fill="#344A5E" id="imagebot_94" stroke-opacity="0" transform="translate(4.6875 -6.80797) matrix(1 0 0 1 -4.6875 6.0065)"/>
  <ellipse ry="39.90666" rx="39.90666" cx="132.70665" cy="466.39565" id="imagebot_93" transform="translate(4.6875 -6.80797) matrix(1 0 0 1 -4.6875 6.0065)" fill-opacity="null" stroke-opacity="0" stroke-linecap="null" stroke-linejoin="null" stroke-dasharray="null" stroke-width="null" stroke="null" fill="#3f007f"/>
  <path d="M125.867,405.156L42.667,405.156L42.667,385.956L117.334,385.956L117.334,288.889L136.534,288.889L136.534,394.489C135.467,400.889 131.2,405.156 125.867,405.156z" fill="#344A5E" id="imagebot_92" stroke-opacity="0" transform="translate(4.6875 -6.80797) matrix(1 0 0 1 -4.6875 6.0065)"/>
  <ellipse ry="39.98039" rx="39.98039" cx="45.83977" cy="392.86939" id="imagebot_90" transform="translate(4.6875 -6.80797) matrix(1 0 0 1 -4.6875 6.0065)" fill-opacity="null" stroke-opacity="0" stroke-linecap="null" stroke-linejoin="null" stroke-dasharray="null" stroke-width="null" stroke="null" fill="url(#imagebot_91)"/>
  <path d="M370.133,476.623L309.333,415.823C307.2,413.69 306.133,411.556 306.133,409.423L306.133,279.289L325.333,279.289L325.333,405.156L382.933,462.756L370.133,476.623z" fill="#344A5E" id="imagebot_89" stroke-opacity="0" transform="translate(4.6875 -6.80797) matrix(1 0 0 1 -4.6875 6.0065)"/>
  <ellipse ry="38.18932" rx="38.18932" cx="372.05533" cy="464.67832" id="imagebot_87" transform="translate(4.6875 -6.80797) matrix(1 0 0 1 -4.6875 6.0065)" fill-opacity="null" stroke-opacity="0" stroke-linecap="null" stroke-linejoin="null" stroke-dasharray="null" stroke-width="null" stroke="null" fill="url(#imagebot_88)"/>
  <rect x="246.4" y="279.289" width="19.2" height="189.867" fill="#344A5E" id="imagebot_86" stroke-opacity="0" transform="translate(4.6875 -6.80797) matrix(1 0 0 1 -4.6875 6.0065)"/>
  <ellipse ry="38.16409" rx="38.16409" cx="251.49709" cy="464.65309" id="imagebot_85" transform="translate(4.6875 -6.80797) matrix(1 0 0 1 -4.6875 6.0065)" fill-opacity="null" stroke-opacity="0" stroke-linecap="null" stroke-linejoin="null" stroke-dasharray="null" stroke-width="null" stroke="null" fill="#007f3f"/>
  <path d="M469.333,405.156L385.066,405.156C379.733,405.156 375.466,400.889 375.466,395.556L375.466,289.956L394.666,289.956L394.666,387.023L469.333,387.023L469.333,405.156L469.333,405.156z" fill="#344A5E" id="imagebot_84" stroke-opacity="0" transform="translate(4.6875 -6.80797) matrix(1 0 0 1 -4.6875 6.0065)"/>
  <ellipse ry="39.08486" rx="39.08486" cx="465.75086" cy="391.97386" class="active-path" id="imagebot_82" transform="translate(4.6875 -6.80797) matrix(1 0 0 1 -4.6875 6.0065)" fill-opacity="null" stroke-opacity="0" stroke-linecap="null" stroke-linejoin="null" stroke-dasharray="null" stroke-width="null" stroke="null" fill="url(#imagebot_83)"/>
  <path d="M171.733,160.889C169.6,169.422 164.266,176.889 160,175.822C155.733,174.755 152.533,167.289 154.667,157.689C156.8,149.156 162.134,141.689 166.4,142.756C171.733,143.823 173.867,152.356 171.733,160.889z" fill="#FFD15C" id="imagebot_81" stroke-opacity="0" transform="translate(4.6875 -6.80797) matrix(1 0 0 1 -4.6875 6.0065)"/>
  <path d="M73.6,160.889C75.733,169.422 81.067,176.889 85.333,175.822C89.6,174.755 92.8,167.289 90.666,157.689C88.533,149.156 83.199,141.689 78.933,142.756C74.667,143.823 71.467,152.356 73.6,160.889z" fill="#FFD15C" id="imagebot_80" stroke-opacity="0" transform="translate(4.6875 -6.80797) matrix(1 0 0 1 -4.6875 6.0065)"/>
  <ellipse cx="121.6" cy="131.023" rx="46.933" ry="46.933" fill="#415A6B" id="imagebot_79" stroke-opacity="0" transform="translate(4.6875 -6.80797) matrix(1 0 0 1 -4.6875 6.0065)"/>
  <path d="M168.533,138.489C165.333,164.089 153.6,185.422 141.866,185.422S123.733,164.089 126.933,138.489S141.866,91.556 153.6,91.556S171.733,112.889 168.533,138.489z" fill="#415A6B" id="imagebot_78" stroke-opacity="0" transform="translate(4.6875 -6.80797) matrix(1 0 0 1 -4.6875 6.0065)"/>
  <path d="M245.333,301.689L236.8,262.222C233.6,248.355 224,236.622 210.133,232.355L160,216.355L122.667,231.288L85.334,216.355L35.201,232.355C21.334,236.622 11.734,248.355 8.534,262.222L0,301.689L245.333,301.689z" fill="#344A5E" id="imagebot_77" stroke-opacity="0" transform="translate(4.6875 -6.80797) matrix(1 0 0 1 -4.6875 6.0065)"/>
  <polygon points="136.533,301.689 152.533,236.623 88.533,236.623 107.733,301.689 " fill="#E8EAE9" id="imagebot_76" stroke-opacity="0" transform="translate(4.6875 -6.80797) matrix(1 0 0 1 -4.6875 6.0065)"/>
  <polygon points="101.333,301.689 144,301.689 130.133,257.956 137.6,245.156 122.667,231.289   107.733,245.156 115.2,257.956 " fill="#F3705A" id="imagebot_75" stroke-opacity="0" transform="translate(4.6875 -6.80797) matrix(1 0 0 1 -4.6875 6.0065)"/>
  <path d="M122.667,231.289C122.667,231.289 148.267,214.222 150.4,199.289L160,216.356L141.867,255.823L122.667,231.289z" fill="#F3F3F3" id="imagebot_74" stroke-opacity="0" transform="translate(4.6875 -6.80797) matrix(1 0 0 1 -4.6875 6.0065)"/>
  <path d="M122.667,231.289C122.667,231.289 97.067,214.222 94.934,199.289L85.334,216.356L103.467,255.823L122.667,231.289z" fill="#F3F3F3" id="imagebot_73" stroke-opacity="0" transform="translate(4.6875 -6.80797) matrix(1 0 0 1 -4.6875 6.0065)"/>
  <path d="M94.933,181.156L94.933,199.289C97.066,214.222 122.666,231.289 122.666,231.289S148.266,214.222 150.399,199.289L150.399,181.156L94.933,181.156z" fill="#F7B64C" id="imagebot_72" stroke-opacity="0" transform="translate(4.6875 -6.80797) matrix(1 0 0 1 -4.6875 6.0065)"/>
  <path d="M 81.067 136.12503186035156 C 80 140.39203186035155 80 144.65903186035158 80 149.99203186035157 C 80 181.99203186035157 99.2 208.65903186035158 122.667 208.65903186035158 S 165.334 181.99203186035157 165.334 149.99203186035157 C 165.334 132.92503186035157 160.001 116.92503186035157 151.467 106.25903186035156 C 135.467 124.39203186035155 112 136.12503186035156 81.067 136.12503186035156 z" fill="#FFD15C" id="imagebot_71" stroke-opacity="0"/>
  <polygon points="161.067,301.689 186.667,266.489 165.333,251.556 186.667,236.623 154.667,205.689    134.4,301.689  " fill="#415A6B" id="imagebot_67" stroke-opacity="0" transform="translate(4.6875 -6.80797) matrix(1 0 0 1 -4.6875 6.0065)"/>
  <polygon points="84.267,301.689 110.933,301.689 90.667,205.689 59.733,236.623 80,251.556 59.733,266.489     " fill="#415A6B" id="imagebot_66" stroke-opacity="0" transform="translate(4.6875 -6.80797) matrix(1 0 0 1 -4.6875 6.0065)"/>
  <path d="M438.4,160.889C436.267,169.422 430.933,176.889 426.667,175.822C422.4,174.755 419.2,167.289 421.334,157.689C423.467,149.156 428.801,141.689 433.067,142.756C437.333,143.823 440.533,152.356 438.4,160.889z" fill="#7f7f7f" id="imagebot_65" stroke-opacity="0" transform="translate(4.6875 -6.80797) matrix(1 0 0 1 -4.6875 6.0065)"/>
  <path d="M340.267,160.889C342.4,169.422 347.734,176.889 352,175.822C356.267,174.755 359.467,167.289 357.333,157.689C355.2,149.156 349.866,141.689 345.6,142.756C340.267,143.823 338.133,152.356 340.267,160.889z" fill="#7f7f7f" id="imagebot_64" stroke-opacity="0" transform="translate(4.6875 -6.80797) matrix(1 0 0 1 -1.5625 4.444)"/>
  <ellipse cx="382.933" cy="131.023" rx="41.6" ry="46.933" fill="#415A6B" id="imagebot_63" stroke-opacity="0" transform="translate(4.6875 -6.80797) matrix(1 0 0 1 -4.6875 6.0065)"/>
  <path d="M434.133,138.489C429.866,164.089 413.866,185.422 397.866,185.422S373.333,164.089 377.599,138.489C381.866,112.889 397.866,91.556 413.866,91.556S439.467,112.889 434.133,138.489z" fill="#415A6B" id="imagebot_62" stroke-opacity="0" transform="translate(4.6875 -6.80797) matrix(1 0 0 1 -4.6875 6.0065)"/>
  <path d="M512,301.689L503.467,262.222C500.267,248.355 490.667,236.622 476.8,232.355L426.667,216.355L389.334,231.288L352,216.356L301.867,232.356C288,236.623 278.4,248.356 275.2,262.223L266.667,301.69L512,301.69L512,301.689z" fill="#344A5E" id="imagebot_61" stroke-opacity="0" transform="translate(4.6875 -6.80797) matrix(1 0 0 1 -4.6875 6.0065)"/>
  <polygon points="403.2,301.689 419.2,236.623 355.2,236.623 373.333,301.689 " fill="#E8EAE9" id="imagebot_60" stroke-opacity="0" transform="translate(4.6875 -6.80797) matrix(1 0 0 1 -4.6875 6.0065)"/>
  <polygon points="368,301.689 410.667,301.689 396.8,257.956 404.267,245.156 389.333,231.289 374.4,245.156   381.867,257.956 " fill="#F3705A" id="imagebot_59" stroke-opacity="0" transform="translate(4.6875 -6.80797) matrix(1 0 0 1 -4.6875 6.0065)"/>
  <path d="M389.333,231.289C389.333,231.289 414.933,214.222 417.066,199.289L426.666,216.356L408.533,255.823L389.333,231.289z" fill="#F3F3F3" id="imagebot_58" stroke-opacity="0" transform="translate(4.6875 -6.80797) matrix(1 0 0 1 -4.6875 6.0065)"/>
  <path d="M389.333,231.289C389.333,231.289 363.733,214.222 361.6,199.289L352,216.356L370.133,255.823L389.333,231.289z" fill="#F3F3F3" id="imagebot_57" stroke-opacity="0" transform="translate(4.6875 -6.80797) matrix(1 0 0 1 -4.6875 6.0065)"/>
  <path d="M361.6,181.156L361.6,199.289C363.733,214.222 389.333,231.289 389.333,231.289S414.933,214.222 417.066,199.289L417.066,181.156L361.6,181.156z" fill="#7f7f7f" id="imagebot_56" stroke-opacity="0" transform="translate(4.6875 -6.80797) matrix(1 0 0 1 -4.6875 6.0065)"/>
  <path d="M406.4,112.889C389.333,121.422 370.133,126.756 350.933,127.822C348.8,135.289 346.666,142.755 346.666,152.355C346.666,184.355 365.866,211.022 389.333,211.022S432,184.356 432,152.356C432,147.023 432,142.756 430.933,138.489C420.267,131.023 412.8,122.489 406.4,112.889z" fill="#7f7f7f" id="imagebot_55" stroke-opacity="0" transform="translate(4.6875 -6.80797) matrix(1 0 0 1 -4.6875 6.0065)"/>
  <polygon points="427.733,301.689 452.267,266.489 432,251.556 452.267,236.623 421.333,205.689    401.067,301.689  " fill="#415A6B" id="imagebot_54" stroke-opacity="0" transform="translate(4.6875 -6.80797) matrix(1 0 0 1 -4.6875 6.0065)"/>
  <polygon points="350.933,301.689 377.6,301.689 357.333,205.689 325.333,236.623 346.667,251.556    325.333,266.489  " fill="#415A6B" id="imagebot_53" stroke-opacity="0" transform="translate(4.6875 -6.80797) matrix(1 0 0 1 -4.6875 6.0065)"/>
  <rect x="218.667" y="206.756" width="73.6" height="94.933" fill="#CED6E0" id="imagebot_52" stroke-opacity="0" transform="translate(4.6875 -6.80797) matrix(1 0 0 1 -4.6875 6.0065)"/>
  <polygon points="266.667,231.289 277.333,221.689 256,200.356 234.667,221.689 245.333,231.289 " fill="#F05540" id="imagebot_51" stroke-opacity="0" transform="translate(4.6875 -6.80797) matrix(1 0 0 1 -4.6875 6.0065)"/>
  <polygon points="280.533,301.689 266.667,231.289 245.333,231.289 232.533,301.689 " fill="#F3705A" id="imagebot_50" stroke-opacity="0" transform="translate(4.6875 -6.80797) matrix(1 0 0 1 -4.6875 6.0065)"/>
  <path d="M404.267,301.689L392.534,254.756C387.201,232.356 370.134,215.289 347.734,209.956L312.534,201.423C297.601,220.623 283.734,259.023 270.934,301.69L404.267,301.69L404.267,301.689z" fill="#609791" id="imagebot_44" stroke-opacity="0" transform="translate(4.6875 -6.80797) matrix(1 0 0 1 -4.6875 6.0065)"/>
  <path d="M241.067,301.689C227.2,259.022 213.334,220.622 199.467,201.422L164.267,209.955C141.867,215.288 124.8,232.355 119.467,254.755L107.734,301.688L241.067,301.689L241.067,301.689z" fill="#609791" id="imagebot_39" stroke-opacity="0" transform="translate(4.6875 -6.80797) matrix(1 0 0 1 -4.6875 6.0065)"/>
  <polygon points="222.933,132.089 222.933,175.823 256,200.356 289.067,175.823 289.067,132.089 " fill="#7f3f00" id="imagebot_33" stroke-opacity="0" transform="translate(4.6875 -6.80797) matrix(1 0 0 1 -4.6875 6.0065)"/>
  <path d="M 242.3295 1.6500318603515627 C 254.8295 0.8830318603515623 214.55 3.662531860351562 210.7045 14.179531860351563 C 192.6465 15.892031860351562 191.925 44.392031860351565 191.925 62.52503186035156 L 191.925 62.52503186035156 C 191.925 115.85803186035156 222.858 155.32503186035157 260.192 155.32503186035157 C 290.059 155.32503186035157 315.659 130.79203186035156 324.192 93.45803186035157 C 328.459 76.39103186035156 328.459 59.32503186035156 323.125 43.325031860351565 C 315.658 18.792031860351564 296.458 -6.8079681396484375 242.3295 1.6500318603515627 z" fill="#7f3f00" id="imagebot_30" stroke-opacity="0"/>
  <ellipse transform="translate(4.6875 -6.80797) matrix(0.2747 -0.9615 0.9615 0.2747 112.439 389.211)" cx="312.572" cy="113.964" rx="20.266" ry="11.733" fill="#7f3f00" id="imagebot_27" stroke-opacity="0"/>
  <ellipse transform="translate(4.6875 -6.80797) matrix(0.2747 0.9615 -0.9615 0.2747 249.926 -102.882)" cx="199.484" cy="114.327" rx="20.266" ry="11.733" fill="#7f3f00" id="imagebot_22" stroke-opacity="0"/>
  <polygon points="289.067,175.823 256,200.356 275.2,227.022 300.8,195.022  " fill="#F3F3F3" id="imagebot_16" stroke-opacity="0" transform="translate(4.6875 -6.80797) matrix(1 0 0 1 -4.6875 6.0065)"/>
  <polygon points="222.933,175.823 256,200.356 236.8,227.022 211.2,195.022  " fill="#F3F3F3" id="imagebot_13" stroke-opacity="0" transform="translate(4.6875 -6.80797) matrix(1 0 0 1 -4.6875 6.0065)"/>
  <polygon points="292.267,301.689 331.733,248.356 299.733,230.223 337.067,221.689 295.467,186.489    267.733,301.689  " class="active-path" fill="#477C77" id="imagebot_2" stroke-opacity="0" transform="translate(4.6875 -6.80797) matrix(1 0 0 1 -4.6875 6.0065)"/>
  <polygon points="180.267,248.356 219.733,301.689 244.267,301.689 216.533,186.489 174.933,221.689    212.267,230.223  " class="active-path" fill="#477C77" id="imagebot_1" stroke-opacity="0" transform="translate(4.6875 -6.80797) matrix(1 0 0 1 -4.6875 6.0065)"/>
 </g>
</svg>